<svg xmlns="http://www.w3.org/2000/svg" width="16" height="16" fill="none" viewBox="0 0 16 16"><path fill="#333340" fill-opacity=".88" fill-rule="evenodd" d="M2.5 4.00004C2.5 2.80342 3.47005 1.83337 4.66667 1.83337H8.70883C8.7508 1.83337 8.79241 1.83654 8.83333 1.84272V4.00004C8.83333 5.01256 9.65414 5.83337 10.6667 5.83337H12.1667V8.00004C12.1667 8.27618 12.3905 8.50004 12.6667 8.50004C12.9428 8.50004 13.1667 8.27618 13.1667 8.00004V5.81611C13.1667 5.38722 13.0163 4.97191 12.7417 4.64244L10.1172 1.49304C9.76892 1.07505 9.25293 0.833374 8.70883 0.833374H4.66667C2.91777 0.833374 1.5 2.25114 1.5 4.00004V12C1.5 13.7489 2.91777 15.1667 4.66667 15.1667H8C8.27614 15.1667 8.5 14.9429 8.5 14.6667C8.5 14.3906 8.27614 14.1667 8 14.1667H4.66667C3.47005 14.1667 2.5 13.1967 2.5 12V4.00004ZM11.5991 4.83337L9.83333 2.7144V4.00004C9.83333 4.46028 10.2064 4.83337 10.6667 4.83337H11.5991Z" clip-rule="evenodd"/><path fill="#333340" fill-opacity=".88" d="M14.6667 13.1667C14.9428 13.1667 15.1667 12.9429 15.1667 12.6667C15.1667 12.3906 14.9428 12.1667 14.6667 12.1667H13.1667V10.6667C13.1667 10.3906 12.9428 10.1667 12.6667 10.1667C12.3905 10.1667 12.1667 10.3906 12.1667 10.6667V12.1667H10.6667C10.3905 12.1667 10.1667 12.3906 10.1667 12.6667C10.1667 12.9429 10.3905 13.1667 10.6667 13.1667H12.1667V14.6667C12.1667 14.9429 12.3905 15.1667 12.6667 15.1667C12.9428 15.1667 13.1667 14.9429 13.1667 14.6667V13.1667H14.6667Z"/></svg>