<svg xmlns="http://www.w3.org/2000/svg" width="25" height="24" fill="#474765" viewBox="0 0 25 24"><path fill-opacity=".55" d="M8.625 6.25C8.21079 6.25 7.875 6.58579 7.875 7C7.875 7.41421 8.21079 7.75 8.625 7.75H16.625C17.0392 7.75 17.375 7.41421 17.375 7C17.375 6.58579 17.0392 6.25 16.625 6.25H8.625Z"/><path fill-opacity=".55" d="M7.875 12C7.875 11.5858 8.21079 11.25 8.625 11.25H16.625C17.0392 11.25 17.375 11.5858 17.375 12C17.375 12.4142 17.0392 12.75 16.625 12.75H8.625C8.21079 12.75 7.875 12.4142 7.875 12Z"/><path fill-opacity=".55" d="M8.625 16.25C8.21079 16.25 7.875 16.5858 7.875 17C7.875 17.4142 8.21079 17.75 8.625 17.75H12.625C13.0392 17.75 13.375 17.4142 13.375 17C13.375 16.5858 13.0392 16.25 12.625 16.25H8.625Z"/><path fill-opacity=".55" fill-rule="evenodd" d="M8.625 1.25C6.00165 1.25 3.875 3.37665 3.875 6V18C3.875 20.6234 6.00165 22.75 8.625 22.75H16.625C19.2484 22.75 21.375 20.6234 21.375 18V6C21.375 3.37665 19.2484 1.25 16.625 1.25H8.625ZM5.375 6C5.375 4.20507 6.83007 2.75 8.625 2.75H16.625C18.4199 2.75 19.875 4.20507 19.875 6V18C19.875 19.7949 18.4199 21.25 16.625 21.25H8.625C6.83007 21.25 5.375 19.7949 5.375 18V6Z" clip-rule="evenodd"/></svg>