<svg width="16" height="16" viewBox="0 0 16 16" fill="#333340" xmlns="http://www.w3.org/2000/svg">
    <path fill-rule="evenodd" clip-rule="evenodd"
          d="M8 5.5C6.61929 5.5 5.5 6.61929 5.5 8C5.5 9.38071 6.61929 10.5 8 10.5C9.38071 10.5 10.5 9.38071 10.5 8C10.5 6.61929 9.38071 5.5 8 5.5ZM6.5 8C6.5 7.17157 7.17157 6.5 8 6.5C8.82843 6.5 9.5 7.17157 9.5 8C9.5 8.82843 8.82843 9.5 8 9.5C7.17157 9.5 6.5 8.82843 6.5 8Z"
          fill="" fill-opacity="0.88"/>
    <path fill-rule="evenodd" clip-rule="evenodd"
          d="M7.99998 3.5C5.27921 3.5 2.91231 5.01124 1.69504 7.23705C1.43499 7.71255 1.43499 8.28735 1.69503 8.76285C2.91229 10.9887 5.27921 12.5 8.00002 12.5C10.7208 12.5 13.0877 10.9888 14.305 8.76295C14.565 8.28746 14.565 7.71265 14.305 7.23715C13.0877 5.01129 10.7208 3.5 7.99998 3.5ZM2.5724 7.71687C3.62102 5.79946 5.6586 4.5 7.99998 4.5C10.3414 4.5 12.379 5.7995 13.4276 7.71696C13.5241 7.89348 13.5241 8.10661 13.4276 8.28313C12.379 10.2005 10.3414 11.5 8.00002 11.5C5.6586 11.5 3.621 10.2005 2.5724 8.28304C2.47587 8.10652 2.47587 7.89339 2.5724 7.71687Z"
          fill="" fill-opacity="0.88"/>
</svg>
