<svg width="101" height="100" viewBox="0 0 101 100" fill="none" xmlns="http://www.w3.org/2000/svg">
<path fill-rule="evenodd" clip-rule="evenodd" d="M50.5 0C22.9219 0 0.5 22.4219 0.5 50C0.5 77.5781 22.9219 100 50.5 100C78.0781 100 100.5 77.5781 100.5 50C100.5 22.4219 78.0781 0 50.5 0Z" fill="url(#paint0_linear_3667_2538)"/>
<path fill-rule="evenodd" clip-rule="evenodd" d="M68.2539 67.7539C67.043 68.9648 65.0508 68.9648 63.8398 67.7539L50.5 54.4141L37.1797 67.7539C35.9688 68.9648 33.9766 68.9648 32.7656 67.7539C31.5547 66.543 31.5547 64.5508 32.7656 63.3398L46.1055 50.0195L32.7656 36.6992C31.5547 35.4883 31.5547 33.4961 32.7656 32.2852C33.9766 31.0742 35.9688 31.0742 37.1797 32.2852L50.5 45.6055L63.8203 32.2852C65.0313 31.0742 67.0234 31.0742 68.2344 32.2852C69.4453 33.4961 69.4453 35.4883 68.2344 36.6992L54.9141 50L68.2344 63.3203C69.4648 64.5508 69.4648 66.5234 68.2539 67.7539Z" fill="white"/>
<defs>
<linearGradient id="paint0_linear_3667_2538" x1="50.5" y1="0" x2="50.5" y2="100" gradientUnits="userSpaceOnUse">
<stop stop-color="#FF6060"/>
<stop offset="1" stop-color="#E42424"/>
</linearGradient>
</defs>
</svg>
