<svg xmlns="http://www.w3.org/2000/svg" width="25" height="24" fill="#474765" viewBox="0 0 25 24"><path fill-opacity=".55" fill-rule="evenodd" d="M15.0683 2.86812C13.3426 1.50571 10.9074 1.50571 9.18169 2.86812L3.68169 7.21023C2.54069 8.11102 1.875 9.4847 1.875 10.9384V17.5C1.875 20.1234 4.00165 22.25 6.625 22.25H8.125C9.0915 22.25 9.875 21.4665 9.875 20.5V17.5C9.875 16.8097 10.4346 16.25 11.125 16.25H13.125C13.8154 16.25 14.375 16.8097 14.375 17.5V20.5C14.375 21.4665 15.1585 22.25 16.125 22.25H17.625C20.2484 22.25 22.375 20.1234 22.375 17.5V10.9384C22.375 9.4847 21.7093 8.11102 20.5683 7.21023L15.0683 2.86812ZM10.1112 4.04544C11.2919 3.11327 12.9581 3.11327 14.1388 4.04545L19.6388 8.38755C20.4195 9.00388 20.875 9.94377 20.875 10.9384V17.5C20.875 19.2949 19.4199 20.75 17.625 20.75H16.125C15.9869 20.75 15.875 20.6381 15.875 20.5V17.5C15.875 15.9812 14.6438 14.75 13.125 14.75H11.125C9.60622 14.75 8.375 15.9812 8.375 17.5V20.5C8.375 20.6381 8.26307 20.75 8.125 20.75H6.625C4.83007 20.75 3.375 19.2949 3.375 17.5V10.9384C3.375 9.94377 3.83047 9.00388 4.61116 8.38755L10.1112 4.04544Z" clip-rule="evenodd"/></svg>