<svg width="24" height="24" viewBox="0 0 24 24" fill="none" xmlns="http://www.w3.org/2000/svg">
<path fill-rule="evenodd" clip-rule="evenodd" d="M14 1.24994L14.0125 1.25L15 1.25C17.0711 1.25 18.75 2.92893 18.75 5L18.75 19C18.75 21.0711 17.0711 22.75 15 22.75L9 22.75C6.92893 22.75 5.25 21.0711 5.25 19L5.25 5C5.25 2.92893 6.92893 1.25 9 1.25L9.98752 1.25L10 1.24994L14 1.24994ZM14 3.74994C14.6009 3.74994 15.1027 3.32598 15.2227 2.76089C16.3608 2.87272 17.25 3.83252 17.25 5L17.25 19C17.25 20.2426 16.2426 21.25 15 21.25L9 21.25C7.75736 21.25 6.75 20.2426 6.75 19L6.75 5C6.75 3.83252 7.63919 2.87272 8.77728 2.76088C8.89729 3.32598 9.39913 3.74994 10 3.74994L14 3.74994Z" fill="#333340" fill-opacity="0.88"/>
</svg>
