<svg xmlns="http://www.w3.org/2000/svg" width="101" height="100" fill="none" viewBox="0 0 101 100"><path fill="url(#paint0_linear_3233_17338)" d="M50.5 76.3672C47.267 76.3672 44.6406 78.9965 44.6406 82.2266V94.1406C44.6406 97.3707 47.267 100 50.5 100C53.733 100 56.3594 97.3707 56.3594 94.1406V82.2266C56.3594 78.9965 53.733 76.3672 50.5 76.3672ZM50.5 0C47.267 0 44.6406 2.6293 44.6406 5.85938V17.7734C44.6406 21.0035 47.267 23.6328 50.5 23.6328C53.733 23.6328 56.3594 21.0035 56.3594 17.7734V5.85938C56.3594 2.6293 53.733 0 50.5 0ZM76.5754 67.7869C74.2766 65.4879 70.557 65.5139 68.2842 67.7869C65.9988 70.0723 66.0031 73.7914 68.2842 76.0725L78.2863 86.0717C80.5715 88.3627 84.2928 88.3594 86.5775 86.0746C88.8605 83.7916 88.8605 80.0723 86.5775 77.7891L76.5754 67.7869ZM22.7137 13.9281C20.433 11.6416 16.7047 11.643 14.4225 13.9252C12.1395 16.2082 12.1395 19.9275 14.4225 22.2107L24.4246 32.21C26.7145 34.5057 30.435 34.4936 32.7158 32.2129C34.9988 29.9299 34.9988 26.2105 32.7158 23.9273L22.7137 13.9281ZM94.6406 44.1406H82.7266C79.4936 44.1406 76.8672 46.7699 76.8672 50C76.8672 53.2301 79.4936 55.8594 82.7266 55.8594H94.6406C97.8736 55.8594 100.5 53.2301 100.5 50C100.5 46.7699 97.8736 44.1406 94.6406 44.1406ZM24.1328 50C24.1328 46.7699 21.5064 44.1406 18.2734 44.1406H6.35938C3.12637 44.1406 0.5 46.7699 0.5 50C0.5 53.2301 3.12637 55.8594 6.35938 55.8594H18.2734C21.5064 55.8594 24.1328 53.2301 24.1328 50ZM24.4246 67.7869L14.4225 77.7891C12.1395 80.0721 12.1395 83.7914 14.4225 86.0717C16.7123 88.3674 20.4328 88.3553 22.7137 86.0746L32.7158 76.0725C35.0102 73.7781 34.9871 70.0551 32.7158 67.7898C30.4352 65.5033 26.7068 65.5047 24.4246 67.7869Z"/><defs><linearGradient id="paint0_linear_3233_17338" x1="50.5" x2="50.5" y1="100" y2="0" gradientUnits="userSpaceOnUse"><stop stop-color="#1EA68A"/><stop offset="1" stop-color="#E8F6F3"/></linearGradient></defs></svg>