<svg xmlns="http://www.w3.org/2000/svg" width="24" height="24" fill="none" viewBox="0 0 24 24"><path fill="#333340" fill-opacity=".88" fill-rule="evenodd" d="M12 2.25C9.37665 2.25 7.25 4.37665 7.25 7L7.25 8.30888C4.98301 8.66846 3.25 10.6318 3.25 13L3.25 17C3.25 19.6234 5.37665 21.75 8 21.75L16 21.75C18.6234 21.75 20.75 19.6234 20.75 17L20.75 13C20.75 10.6318 19.017 8.66846 16.75 8.30888L16.75 7C16.75 4.37665 14.6234 2.25 12 2.25ZM15.25 8.25L15.25 7C15.25 5.20508 13.7949 3.75 12 3.75C10.2051 3.75 8.75 5.20508 8.75 7L8.75 8.25L15.25 8.25ZM8 9.75C6.20507 9.75 4.75 11.2051 4.75 13L4.75 17C4.75 18.7949 6.20507 20.25 8 20.25L16 20.25C17.7949 20.25 19.25 18.7949 19.25 17L19.25 13C19.25 11.2051 17.7949 9.75 16 9.75L8 9.75ZM12 13.25C12.4142 13.25 12.75 13.5858 12.75 14L12.75 16C12.75 16.4142 12.4142 16.75 12 16.75C11.5858 16.75 11.25 16.4142 11.25 16L11.25 14C11.25 13.5858 11.5858 13.25 12 13.25Z" clip-rule="evenodd"/></svg>