<svg width="16" height="16" viewBox="0 0 16 16" fill="none" xmlns="http://www.w3.org/2000/svg">
<g clip-path="url(#clip0_3268_13930)">
<path d="M12.2573 3.73844V5.52472H12.2063C12.2063 6.15418 10.5221 6.64754 8.51467 6.64754C7.74913 6.66453 6.96655 6.57948 6.218 6.39234V6.44337C5.84373 6.12015 5.41843 5.88196 4.95911 5.72885V5.69482L4.90808 3.80646C5.04419 4.38487 6.60931 4.84419 8.5317 4.84419C10.4541 4.84419 12.2063 4.35084 12.2063 3.7384L12.2573 3.73844Z" fill="#F4B844"/>
<path d="M8.56568 2.63263C10.5901 2.63263 12.2743 3.14298 12.2743 3.75545C12.2743 4.36792 10.5731 4.86124 8.56568 4.86124C6.55823 4.86124 5.06114 4.40191 4.92506 3.8235V3.75545C4.90803 3.14298 6.54123 2.63263 8.56568 2.63263Z" fill="#FEDB41"/>
<path d="M8.87189 10.6284V12.0574H8.53165C7.7831 12.0744 7.03456 11.9894 6.30304 11.8193L6.25201 11.7682C6.72837 11.3429 7.06862 10.7985 7.27275 10.2031H7.3578C7.71505 10.2371 8.10635 10.2541 8.49762 10.2541H8.85486L8.87189 10.6284Z" fill="#E2A63B"/>
<path d="M8.54863 8.38278L8.71874 8.46783C8.70174 8.50186 8.70174 8.53589 8.70174 8.56992C8.70174 8.62094 8.71874 8.672 8.73577 8.72303V10.3222H8.54863C8.12333 10.3222 7.69803 10.3052 7.32376 10.2711H7.23871C7.35779 9.89687 7.40881 9.5056 7.40881 9.11433C7.40881 8.85914 7.37479 8.60398 7.34076 8.34879H7.42581C7.80012 8.38278 8.17439 8.38278 8.54863 8.38278Z" fill="#F4B844"/>
<path d="M6.21796 6.39235C6.9665 6.57948 7.74905 6.66454 8.51462 6.64754C10.5221 6.64754 12.2063 6.15418 12.2063 5.52472H12.2573V7.53216C10.386 7.53216 8.85484 7.97449 8.6677 8.53587L8.51459 8.45082C8.15735 8.45082 7.8171 8.43382 7.45983 8.39979H7.37477C7.20467 7.63425 6.79637 6.93673 6.20093 6.42637L6.21796 6.39235Z" fill="#E2A63B"/>
<path d="M16 10.4413V12.2446C16 12.857 14.3498 13.3674 12.3424 13.3674C10.3349 13.3674 8.73578 12.874 8.73578 12.2616V10.6284C9.00797 11.1558 10.488 11.5641 12.2743 11.5641C14.0606 11.5641 15.949 11.0537 15.949 10.4413H16Z" fill="#E2A63B"/>
<path d="M16 8.67197V10.4412H15.949C15.949 11.0537 14.2818 11.5641 12.2743 11.5641C10.2669 11.5641 9.008 11.1558 8.70178 10.6284V8.77405C8.92295 9.33546 10.454 9.76076 12.2914 9.76076C14.1287 9.76076 15.915 9.2674 15.966 8.67197H16Z" fill="#F4B844"/>
<path d="M8.65073 8.77404C8.63373 8.72301 8.6167 8.68898 8.6167 8.63793C8.6167 8.6039 8.6167 8.56987 8.6337 8.53584C8.82083 7.97443 10.369 7.51511 12.2573 7.51511H12.2743C14.2988 7.51511 16 8.00846 16 8.63793V8.67195C15.949 9.26739 14.2647 9.77774 12.2743 9.77774C10.2839 9.77774 8.87189 9.33545 8.65073 8.77404Z" fill="#FEDB41"/>
<path d="M7.45987 8.39978C7.4939 8.63795 7.52793 8.89314 7.52793 9.1313C7.52793 9.50557 7.4769 9.87984 7.37482 10.2201C7.17068 10.8325 6.81341 11.3939 6.33709 11.8192C5.67362 12.4317 4.806 12.7719 3.90434 12.7719C1.89687 12.908 0.144613 11.3939 0.0085017 9.36949C-0.127609 7.36205 1.38648 5.6098 3.41096 5.47369C3.58106 5.45669 3.7512 5.45669 3.92131 5.47369C4.27855 5.47369 4.65282 5.52471 4.99307 5.62679C5.46943 5.7799 5.91172 6.0351 6.286 6.35831C6.86444 6.90272 7.28973 7.61721 7.45987 8.39978Z" fill="#FEDB41"/>
<path d="M3.75122 10.9516C4.75654 10.9516 5.57152 10.1366 5.57152 9.13131C5.57152 8.12598 4.75654 7.311 3.75122 7.311C2.74589 7.311 1.93091 8.12598 1.93091 9.13131C1.93091 10.1366 2.74589 10.9516 3.75122 10.9516Z" fill="#F4B844"/>
</g>
<defs>
<clipPath id="clip0_3268_13930">
<rect width="16" height="16" fill="white"/>
</clipPath>
</defs>
</svg>
