<svg width="25" height="24" viewBox="0 0 25 24" fill="#474765" xmlns="http://www.w3.org/2000/svg">
    <path d="M22.5795 21.0332H21.0999V15.7941C21.0999 15.4228 20.7988 15.1221 20.4275 15.1221H17.2294C16.8581 15.1221 16.5571 15.4228 16.5571 15.7941C16.5571 16.1654 16.8581 16.466 17.2294 16.466H19.7556V21.0332H16.1047V12.9614C16.1047 12.5901 15.8037 12.2895 15.4324 12.2895C15.0611 12.2895 14.7604 12.5901 14.7604 12.9614V21.0332H10.7454V11.8133H15.4324C15.8036 11.8133 16.1047 11.5127 16.1047 11.1414C16.1047 10.7701 15.8037 10.4694 15.4324 10.4694H10.0735C9.70262 10.4694 9.40157 10.7701 9.40157 11.1414V21.0331H5.75064V14.4003H8.27684C8.64774 14.4003 8.9488 14.0996 8.9488 13.7284C8.9488 13.3571 8.64811 13.0564 8.27684 13.0564H5.07831C4.7074 13.0564 4.40635 13.3571 4.40635 13.7284V21.0332H2.92343C2.55248 21.0332 2.25146 21.3342 2.25146 21.7051C2.25146 22.0761 2.55248 22.3767 2.92343 22.3767H22.5795C22.9504 22.3767 23.2519 22.0764 23.2519 21.7051C23.2519 21.3338 22.9508 21.0332 22.5795 21.0332Z"
          fill="" fill-opacity="0.55"/>
    <path d="M10.0255 6.77807L9.73174 8.49363C9.67132 8.84563 9.74486 9.16666 9.93956 9.39782C10.2304 9.74289 10.7364 9.82008 11.2125 9.56964L12.753 8.76011L14.2934 9.57001C14.4834 9.66939 14.6738 9.71996 14.8594 9.71996C15.1408 9.71996 15.392 9.60528 15.567 9.39708C15.7614 9.16629 15.8346 8.84489 15.7738 8.49437L15.4797 6.77848L16.726 5.56454C17.0482 5.25003 17.1654 4.86165 17.0482 4.49911C16.9306 4.13584 16.6077 3.88978 16.1593 3.82243L14.4382 3.5731L13.6688 2.01409C13.4693 1.60931 13.1351 1.37671 12.7525 1.37671C12.3699 1.37671 12.0362 1.60894 11.8378 2.01262L11.0672 3.5731L9.34328 3.8228C8.89736 3.88941 8.57415 4.1362 8.4573 4.49948C8.34044 4.86276 8.45804 5.25113 8.78054 5.56527L10.0255 6.77807ZM11.6096 4.8525C11.8288 4.82084 12.018 4.68323 12.116 4.48488L12.753 3.19559L13.3896 4.48525C13.4875 4.68364 13.6768 4.82121 13.896 4.85291L15.3192 5.0593L14.2891 6.06251C14.1308 6.21685 14.058 6.43924 14.0958 6.65728L14.3383 8.07543L13.0657 7.40639C12.9678 7.35471 12.8605 7.32924 12.7531 7.32924C12.6457 7.32924 12.5383 7.35471 12.4407 7.40606L11.1671 8.07511L11.4099 6.65695C11.447 6.43891 11.3749 6.21652 11.2162 6.06218L10.1868 5.05861L11.6096 4.8525Z"
          fill="" fill-opacity="0.55"/>
</svg>
