<svg xmlns="http://www.w3.org/2000/svg" width="23" height="22" fill="none" viewBox="0 0 23 22"><path fill="#1EA68A" fill-rule="evenodd" d="M1.64583 6.41667C1.64583 3.50566 4.00566 1.14583 6.91666 1.14583H16.0833C18.9943 1.14583 21.3542 3.50566 21.3542 6.41667V15.5833C21.3542 18.4943 18.9943 20.8542 16.0833 20.8542H6.91666C4.00566 20.8542 1.64583 18.4943 1.64583 15.5833V6.41667ZM6.91666 2.52083C4.76505 2.52083 3.02083 4.26506 3.02083 6.41667V15.5833C3.02083 17.7349 4.76505 19.4792 6.91666 19.4792H16.0833C18.2349 19.4792 19.9792 17.7349 19.9792 15.5833V6.41667C19.9792 4.26506 18.2349 2.52083 16.0833 2.52083H6.91666ZM11.9305 7.76386C12.199 7.49538 12.6343 7.49538 12.9028 7.76386L15.0046 9.86568C15.6311 10.4921 15.6311 11.5078 15.0046 12.1343L12.9028 14.2361C12.6343 14.5046 12.199 14.5046 11.9305 14.2361C11.662 13.9676 11.662 13.5323 11.9305 13.2639L13.5069 11.6875L7.83333 11.6875C7.45363 11.6875 7.14583 11.3797 7.14583 11C7.14583 10.6203 7.45363 10.3125 7.83333 10.3125L13.5069 10.3125L11.9305 8.73613C11.662 8.46765 11.662 8.03235 11.9305 7.76386Z" clip-rule="evenodd"/></svg>