<svg width="24" height="24" viewBox="0 0 24 24" fill="none" xmlns="http://www.w3.org/2000/svg">
<path d="M8.96967 12.5303L10.9697 14.5303C11.2626 14.8232 11.7374 14.8232 12.0303 14.5303L16.0303 10.5303C16.3232 10.2374 16.3232 9.76254 16.0303 9.46965C15.7374 9.17676 15.2626 9.17676 14.9697 9.46965L11.5 12.9393L10.0303 11.4696C9.73744 11.1768 9.26256 11.1768 8.96967 11.4696C8.67678 11.7625 8.67678 12.2374 8.96967 12.5303Z" fill="#333340" fill-opacity="0.88"/>
<path fill-rule="evenodd" clip-rule="evenodd" d="M12.8499 1.61418C12.3213 1.32054 11.6787 1.32054 11.1501 1.61418L4.15012 5.50307C3.59456 5.81171 3.25 6.3973 3.25 7.03284L3.25 11.6715C3.25 15.5756 5.36659 19.1727 8.77934 21.0687L11.1501 22.3858C11.6787 22.6794 12.3213 22.6794 12.8499 22.3858L15.2207 21.0687C18.6334 19.1727 20.75 15.5756 20.75 11.6715L20.75 7.03284C20.75 6.3973 20.4054 5.81171 19.8499 5.50307L12.8499 1.61418ZM11.8786 2.92541C11.9541 2.88347 12.0459 2.88347 12.1214 2.92541L19.1214 6.8143C19.2008 6.85839 19.25 6.94205 19.25 7.03284L19.25 11.6715C19.25 15.0308 17.4287 18.1261 14.4922 19.7575L12.1214 21.0746C12.0459 21.1165 11.9541 21.1165 11.8786 21.0746L9.5078 19.7575C6.57125 18.1261 4.75 15.0308 4.75 11.6715L4.75 7.03284C4.75 6.94205 4.79922 6.85839 4.87859 6.8143L11.8786 2.92541Z" fill="#333340" fill-opacity="0.88"/>
</svg>
