<svg width="16" height="16" viewBox="0 0 16 16" fill="none" xmlns="http://www.w3.org/2000/svg">
<g clip-path="url(#clip0_3450_3116)">
<path fill-rule="evenodd" clip-rule="evenodd" d="M13.2019 2.80998C11.8226 1.42859 9.9883 0.667448 8.03405 0.666672C4.00734 0.666672 0.730103 3.94497 0.728491 7.97454C0.727954 9.2626 1.06437 10.5199 1.70364 11.6282L0.667236 15.4154L4.54002 14.3991C5.60704 14.9813 6.80843 15.2882 8.03112 15.2887H8.03413C12.0604 15.2887 15.338 12.01 15.3396 7.98037C15.3404 6.02758 14.5812 4.19138 13.2019 2.80998ZM8.03413 14.0543H8.03164C6.9421 14.0539 5.87343 13.7611 4.94117 13.2076L4.71943 13.076L2.42129 13.6791L3.03472 11.4375L2.89033 11.2077C2.28251 10.2406 1.96147 9.12272 1.96195 7.97499C1.96328 4.62578 4.68722 1.901 8.03653 1.901C9.65835 1.90162 11.1829 2.53429 12.3293 3.68246C13.4758 4.83062 14.1068 6.35681 14.1061 7.97989C14.1048 11.3293 11.3809 14.0543 8.03413 14.0543ZM11.3648 9.50495C11.1822 9.41355 10.2848 8.97176 10.1174 8.91082C9.95013 8.84988 9.82845 8.81942 9.70674 9.00223C9.58506 9.18503 9.23524 9.59637 9.12872 9.71823C9.02227 9.84011 8.91579 9.85536 8.73324 9.76394C8.55071 9.67253 7.96255 9.47972 7.26531 8.85758C6.72268 8.3734 6.35631 7.77535 6.24983 7.59255C6.14335 7.40973 6.23851 7.31089 6.32989 7.21986C6.41199 7.13804 6.51242 7.00658 6.60369 6.89993C6.69495 6.7933 6.72537 6.71713 6.78621 6.59527C6.84706 6.47339 6.81664 6.36674 6.77101 6.27534C6.72537 6.18394 6.36032 5.28511 6.20819 4.91949C6.06004 4.56341 5.90953 4.61159 5.79749 4.60601C5.69113 4.60072 5.56932 4.59958 5.44764 4.59958C5.32595 4.59958 5.1282 4.64529 4.96087 4.82809C4.79355 5.01091 4.32201 5.4527 4.32201 6.35151C4.32201 7.25032 4.97609 8.11865 5.06736 8.24053C5.15862 8.36241 6.35452 10.2069 8.18564 10.9979C8.62115 11.186 8.96117 11.2984 9.22627 11.3826C9.66357 11.5215 10.0615 11.5019 10.376 11.4549C10.7267 11.4025 11.456 11.0132 11.6081 10.5866C11.7602 10.16 11.7602 9.79442 11.7146 9.71825C11.669 9.64208 11.5473 9.59636 11.3648 9.50495Z" fill="white"/>
</g>
<defs>
<clipPath id="clip0_3450_3116">
<rect width="16" height="16" fill="white"/>
</clipPath>
</defs>
</svg>
