<svg xmlns="http://www.w3.org/2000/svg" width="25" height="24" fill="#474765" viewBox="0 0 25 24"><path fill-opacity=".55" d="M13.125 8C13.125 7.58579 12.7892 7.25 12.375 7.25C11.9608 7.25 11.625 7.58579 11.625 8V11.7324C11.625 12.1504 11.8339 12.5406 12.1816 12.7725L14.959 14.624C15.3036 14.8538 15.7693 14.7607 15.999 14.416C16.2288 14.0714 16.1357 13.6057 15.791 13.376L13.125 11.5986V8Z"/><path fill-opacity=".55" fill-rule="evenodd" d="M12.375 1.25C6.43794 1.25 1.625 6.06294 1.625 12C1.625 17.9371 6.43794 22.75 12.375 22.75C18.3121 22.75 23.125 17.9371 23.125 12C23.125 6.06294 18.3121 1.25 12.375 1.25ZM3.125 12C3.125 6.89137 7.26637 2.75 12.375 2.75C17.4836 2.75 21.625 6.89137 21.625 12C21.625 17.1086 17.4836 21.25 12.375 21.25C7.26637 21.25 3.125 17.1086 3.125 12Z" clip-rule="evenodd"/></svg>